PathFileType  4	(X/Y/Z) C:\Users\Jenny Yong\Documents\NMBL\GaitRetraining\Subject20\WeekOne\
DataRate	CameraRate	NumFrames	NumMarkers	Units	OrigDataRate	OrigDataStartFrame	OrigNumFrames
  200.0		  200.0		    10		     42		 mm	  200.0	      253	    289
Frame#	Time	R.Shoulder			L.Shoulder			R.Clavicle			L.Clavicle			R.Biceps			R.Elbow			R.Forearm			R.Wrist			L.Biceps			L.Elbow			L.Forearm			L.Wrist			R.ASIS			L.ASIS			R.PSIS			S2			L.PSIS			R.TH1			R.TH2			R.TH3			R.Knee			R.SH1			R.SH2			R.SH3			R.SH4			R.Ankle			R.MAnkle			R.Heel			R.MT5			R.Toe			L.TH1			L.TH2			L.TH3			L.TH4			L.Knee			L.SH1			L.SH2			L.SH3			L.Ankle			L.Heel			L.MT5			L.Toe			
		X1	Y1	Z1	X2	Y2	Z2	X3	Y3	Z3	X4	Y4	Z4	X5	Y5	Z5	X6	Y6	Z6	X7	Y7	Z7	X8	Y8	Z8	X9	Y9	Z9	X10	Y10	Z10	X11	Y11	Z11	X12	Y12	Z12	X13	Y13	Z13	X14	Y14	Z14	X15	Y15	Z15	X16	Y16	Z16	X17	Y17	Z17	X18	Y18	Z18	X19	Y19	Z19	X20	Y20	Z20	X21	Y21	Z21	X22	Y22	Z22	X23	Y23	Z23	X24	Y24	Z24	X25	Y25	Z25	X26	Y26	Z26	X27	Y27	Z27	X28	Y28	Z28	X29	Y29	Z29	X30	Y30	Z30	X31	Y31	Z31	X32	Y32	Z32	X33	Y33	Z33	X34	Y34	Z34	X35	Y35	Z35	X36	Y36	Z36	X37	Y37	Z37	X38	Y38	Z38	X39	Y39	Z39	X40	Y40	Z40	X41	Y41	Z41	X42	Y42	Z42	

253	1.26000	3015.468	1344.854	56.707	2970.521	1376.745	-266.237	3045.844	1311.410	-93.247	3043.341	1315.260	-135.512	2933.292	1184.444	136.152	2974.227	1069.606	216.582	2571.442	984.988	-75.847	3139.029	1116.094	76.833	2836.799	1250.552	-323.044	2741.440	1170.875	-340.681	2807.533	1099.822	-304.301	2952.161	1110.341	-310.306	2993.703	916.251	16.086	2992.698	922.103	-237.937	2820.176	959.807	-60.548	2818.868	949.152	-108.187	2820.526	957.613	-156.075	2898.755	689.579	56.585	2799.155	710.011	22.376	2768.883	585.362	-1.971	2794.007	461.481	-2.100	2776.659	372.865	-4.922	2714.115	281.618	7.616	2708.905	418.813	-6.853	2639.669	317.438	-9.030	2591.792	140.835	-38.318	2614.901	144.382	-121.207	2511.357	130.813	-77.809	2659.563	37.732	-19.755	2708.746	44.350	-82.071	3026.961	772.397	-268.814	3098.298	663.496	-240.534	2932.641	722.820	-275.091	2992.735	609.036	-229.234	3119.105	517.493	-199.817	3102.921	418.173	-173.247	3049.349	488.735	-206.430	2961.350	412.434	-219.687	2843.361	256.178	-188.735	2753.366	277.340	-153.797	2868.279	137.956	-183.940	2908.776	128.618	-120.077
254	1.26500	3031.546	1348.581	56.303	2980.630	1379.695	-264.463	3059.750	1315.632	-93.985	3056.588	1319.492	-136.087	2949.878	1188.161	135.913	2991.374	1072.276	214.974	2533.053	976.992	-100.017	3154.814	1120.697	74.222	2847.601	1256.649	-321.414	2750.137	1177.736	-337.784	2816.657	1106.344	-303.005	2961.506	1116.392	-310.752	3008.729	917.917	15.499	3006.820	928.113	-237.500	2835.896	963.585	-59.327	2834.090	953.246	-107.272	2835.419	964.652	-155.143	2909.759	692.561	56.026	2810.286	715.202	22.480	2777.321	592.479	-2.018	2798.708	467.576	-2.351	2780.706	379.416	-4.280	2717.735	287.647	8.217	2712.439	424.733	-7.646	2643.541	323.296	-9.966	2596.696	145.335	-37.823	2621.798	149.267	-120.102	2516.573	137.239	-76.766	2662.835	41.082	-18.243	2710.015	44.850	-82.010	3041.487	778.356	-268.926	3114.016	670.224	-240.484	2947.956	728.027	-275.960	3009.401	614.948	-230.823	3135.571	523.686	-200.426	3121.499	422.187	-172.553	3064.583	489.946	-206.076	2981.821	407.316	-215.269	2869.862	248.630	-184.251	2778.711	265.474	-148.782	2901.121	131.366	-179.877	2942.054	124.029	-116.319
255	1.27000	3047.831	1352.280	55.856	2993.097	1384.896	-264.145	3073.267	1319.585	-94.641	3069.622	1323.589	-136.710	2967.271	1192.987	136.264	3008.292	1075.049	213.450	2496.145	969.292	-123.502	3170.023	1124.893	71.540	2857.391	1262.145	-319.357	2759.224	1184.238	-335.151	2825.934	1112.648	-301.995	2970.168	1122.025	-310.559	3024.119	919.635	14.797	3020.593	933.693	-237.013	2851.691	968.452	-58.093	2848.600	957.618	-106.370	2850.273	969.086	-154.640	2920.819	695.526	55.530	2821.290	720.513	23.868	2786.140	597.389	-3.360	2804.081	473.450	-2.422	2784.422	385.538	-3.737	2721.944	294.049	9.017	2716.262	430.750	-8.461	2647.572	329.235	-10.697	2603.828	149.463	-36.573	2627.255	153.531	-119.138	2522.734	145.063	-77.245	2659.539	39.445	-21.235	2711.444	45.728	-81.717	3056.613	784.486	-269.318	3129.603	676.792	-239.881	2963.311	732.952	-277.197	3024.672	619.785	-231.681	3149.306	528.441	-199.341	3139.767	425.716	-171.915	3079.239	490.370	-204.992	3000.620	404.169	-213.715	2896.606	239.039	-181.937	2804.939	251.997	-145.023	2933.384	124.389	-175.893	2975.891	120.161	-112.881
256	1.27500	3063.664	1355.693	55.440	3004.713	1388.704	-262.944	3086.558	1323.150	-95.352	3082.791	1327.423	-137.129	2984.691	1197.241	136.592	3025.090	1077.591	212.036	2461.586	962.054	-145.946	3185.563	1129.251	69.147	2867.745	1267.432	-317.429	2768.397	1190.538	-332.525	2835.456	1118.632	-300.103	2979.229	1127.419	-310.728	3039.151	921.153	13.982	3034.331	939.027	-236.615	2866.725	970.583	-57.374	2863.693	961.755	-105.515	2864.796	970.837	-153.121	2932.197	698.407	55.211	2832.424	725.722	26.364	2794.697	603.970	-2.736	2809.440	479.359	-2.338	2789.306	392.226	-2.963	2726.354	300.454	9.929	2720.579	436.706	-9.334	2652.312	335.205	-11.394	2608.691	156.433	-33.710	2634.344	158.306	-118.045	2529.330	152.539	-77.712	2661.596	41.619	-20.712	2712.807	46.229	-81.464	3070.520	789.754	-269.173	3144.496	683.008	-239.431	2977.709	737.236	-277.899	3040.195	624.682	-232.932	3163.063	532.614	-198.723	3157.778	428.979	-171.240	3093.995	490.017	-204.632	3020.097	399.806	-213.251	2924.240	229.720	-179.254	2832.169	238.797	-141.073	2966.184	117.859	-171.954	3009.792	116.611	-109.428
257	1.28000	3079.595	1358.966	54.934	3016.291	1392.123	-261.814	3100.645	1326.728	-95.773	3096.078	1330.995	-137.499	2999.432	1198.834	135.895	3041.772	1080.087	210.635	2430.250	955.445	-166.992	3200.696	1133.224	66.709	2878.918	1272.740	-315.787	2777.974	1196.624	-329.968	2844.756	1122.597	-298.278	2988.094	1132.471	-310.647	3054.087	922.557	13.035	3048.601	944.263	-236.138	2882.365	973.981	-56.515	2878.911	965.701	-104.811	2879.629	975.607	-152.968	2943.554	700.984	54.900	2843.626	730.563	28.971	2804.166	609.018	-3.302	2814.692	484.793	-2.449	2794.093	398.411	-2.343	2731.210	306.856	10.963	2725.854	442.813	-9.878	2657.317	340.911	-12.118	2614.394	160.818	-33.448	2641.348	162.629	-116.759	2535.753	160.284	-77.698	2662.906	43.405	-20.581	2714.443	46.718	-81.102	3085.457	795.432	-268.770	3159.737	688.805	-239.433	2993.196	742.390	-279.260	3054.079	627.777	-233.015	3176.482	536.065	-198.233	3175.354	431.822	-170.588	3108.512	489.426	-203.666	3039.197	395.909	-211.337	2951.585	220.955	-176.425	2859.071	225.932	-137.468	2999.094	111.711	-168.160	3043.421	113.113	-106.105
258	1.28500	3095.711	1362.090	54.438	3027.993	1395.142	-260.609	3114.356	1330.014	-96.283	3108.975	1334.306	-137.882	3015.864	1202.051	135.721	3058.378	1082.354	209.368	2403.008	949.630	-186.287	3215.940	1137.057	64.481	2889.025	1277.338	-313.767	2787.954	1202.436	-327.597	2855.154	1128.716	-296.918	2998.213	1138.073	-310.707	3069.172	923.999	12.011	3062.679	949.191	-235.703	2897.831	978.313	-55.103	2894.360	969.402	-103.947	2893.868	981.291	-152.224	2955.563	703.704	54.751	2855.511	735.404	31.999	2813.879	615.079	-2.117	2820.413	489.995	-2.598	2799.516	404.750	-1.780	2736.658	313.031	12.113	2731.111	448.724	-10.684	2663.103	346.719	-12.498	2621.570	165.932	-33.608	2649.111	167.340	-115.042	2543.349	168.076	-77.359	2665.851	46.268	-19.872	2716.906	47.531	-80.348	3099.558	799.875	-268.801	3173.703	693.017	-238.593	3008.038	747.021	-280.040	3070.641	634.292	-235.305	3189.579	538.909	-197.756	3192.802	434.484	-169.917	3123.559	488.327	-204.013	3058.123	391.240	-209.580	2980.199	212.356	-173.318	2887.886	214.063	-132.557	3032.313	105.420	-164.809	3077.081	109.997	-102.927
259	1.29000	3111.477	1364.963	53.934	3039.958	1397.874	-259.334	3128.189	1332.980	-96.562	3122.516	1337.480	-138.094	3032.247	1205.319	135.706	3074.999	1084.559	208.068	2380.733	944.777	-203.472	3231.333	1140.598	62.461	2900.294	1281.934	-312.045	2797.611	1207.994	-325.276	2865.913	1134.272	-295.338	3007.730	1142.619	-310.945	3084.120	925.329	10.975	3076.809	953.591	-235.235	2913.435	981.732	-54.259	2910.071	972.781	-103.544	2909.165	985.300	-150.650	2965.742	704.447	55.093	2866.029	737.940	33.447	2823.514	620.027	-2.518	2827.237	495.454	-2.339	2805.837	411.027	-1.175	2742.642	319.093	13.136	2736.953	454.219	-11.485	2669.282	352.349	-12.715	2628.128	169.713	-31.718	2657.229	171.432	-113.680	2551.168	175.828	-76.126	2667.147	47.910	-19.709	2719.779	47.738	-79.389	3114.100	804.044	-268.754	3187.755	696.986	-238.078	3022.584	751.045	-280.942	3084.249	637.791	-235.477	3203.148	541.854	-197.358	3210.138	437.065	-169.204	3137.731	486.554	-203.041	3077.184	386.299	-207.943	3008.161	205.585	-169.380	2915.942	201.302	-128.811	3065.984	99.915	-161.169	3111.194	107.425	-99.726
260	1.29500	3127.215	1367.527	53.527	3052.038	1400.234	-258.108	3141.922	1335.556	-97.031	3135.519	1340.275	-138.411	3048.599	1208.150	135.543	3091.531	1086.432	206.976	2364.294	941.052	-218.193	3246.541	1143.929	60.407	2911.449	1286.070	-310.358	2807.625	1212.996	-322.788	2875.379	1138.168	-293.831	3017.913	1147.177	-310.854	3098.967	926.464	9.934	3091.194	957.637	-234.791	2928.920	984.772	-53.195	2925.372	976.180	-102.913	2924.033	987.394	-149.694	2979.096	708.193	54.593	2879.344	743.508	36.279	2833.576	625.420	-1.642	2834.312	500.562	-2.497	2812.372	416.719	-0.973	2749.371	325.018	14.098	2743.557	459.610	-12.454	2675.978	357.779	-12.945	2635.663	174.849	-31.524	2665.595	175.828	-111.604	2559.627	184.086	-75.816	2669.974	50.659	-19.175	2722.634	48.390	-78.496	3128.854	807.856	-268.671	3201.494	700.204	-237.523	3036.676	754.574	-281.487	3097.086	640.165	-234.585	3215.760	543.750	-197.110	3226.510	438.784	-168.611	3151.979	484.874	-201.965	3096.505	381.484	-206.312	3035.709	196.957	-167.136	2945.025	188.870	-125.396	3100.404	94.961	-157.780	3144.823	105.064	-96.653
261	1.30000	3142.991	1369.918	53.056	3064.137	1402.103	-256.894	3155.636	1337.976	-97.170	3148.836	1342.795	-138.600	3064.760	1210.806	135.863	3107.914	1088.045	205.881	2354.566	938.620	-230.094	3261.258	1146.820	58.270	2922.597	1289.679	-308.668	2817.905	1217.646	-320.757	2883.641	1141.216	-292.567	3027.813	1151.265	-310.808	3113.789	927.474	8.998	3105.513	961.128	-234.318	2944.046	987.304	-53.737	2940.686	979.282	-103.227	2939.363	990.658	-149.002	2991.070	710.214	54.607	2891.572	747.130	38.169	2844.448	630.368	-1.013	2842.440	505.970	-2.132	2819.456	422.067	-0.410	2756.361	330.633	15.181	2750.854	464.877	-13.003	2683.221	362.825	-12.768	2642.965	178.669	-29.783	2673.868	179.920	-109.519	2568.761	192.064	-74.949	2671.399	52.497	-19.237	2725.393	48.829	-77.608	3143.759	811.167	-268.647	3215.292	702.950	-237.053	3051.500	757.946	-282.365	3111.252	644.487	-235.380	3228.203	545.181	-196.759	3242.670	439.679	-167.720	3165.951	482.478	-201.644	3115.462	376.559	-204.799	3067.524	188.945	-162.414	2974.832	177.313	-122.050	3134.365	89.974	-154.543	3179.182	103.637	-93.765
262	1.30500	3158.495	1371.878	52.666	3076.375	1403.682	-255.667	3169.680	1339.959	-97.331	3162.292	1345.018	-138.692	3081.383	1214.167	135.966	3124.409	1089.637	204.820	2352.418	937.649	-238.820	3276.560	1149.707	56.499	2934.019	1293.021	-307.009	2829.082	1222.725	-319.338	2895.071	1146.008	-291.095	3037.858	1154.975	-310.755	3128.511	928.327	8.086	3120.190	964.161	-233.821	2959.289	989.493	-53.350	2955.871	982.595	-102.670	2954.468	994.687	-148.781	3003.180	712.117	54.681	2903.990	750.424	39.622	2853.987	634.576	-1.627	2851.233	511.022	-2.169	2827.198	426.936	-0.254	2764.150	335.689	16.230	2758.588	469.594	-13.486	2691.386	367.863	-12.525	2650.867	183.076	-28.440	2681.941	183.556	-107.640	2577.751	199.529	-73.240	2674.430	55.357	-18.745	2728.563	49.553	-76.596	3157.060	812.346	-268.916	3228.662	704.491	-236.086	3065.310	761.216	-282.522	3122.726	646.083	-233.736	3240.668	546.283	-196.466	3259.144	441.146	-167.429	3180.199	480.223	-200.274	3134.590	371.636	-203.338	3095.835	180.519	-160.702	3004.444	165.254	-119.086	3168.333	85.561	-151.276	3212.575	102.385	-91.056
